<?xml version="1.0" encoding="UTF-8" standalone="no"?>
<svg
   xmlns:dc="http://purl.org/dc/elements/1.1/"
   xmlns:cc="http://creativecommons.org/ns#"
   xmlns:rdf="http://www.w3.org/1999/02/22-rdf-syntax-ns#"
   xmlns:svg="http://www.w3.org/2000/svg"
   xmlns="http://www.w3.org/2000/svg"
   xmlns:sodipodi="http://sodipodi.sourceforge.net/DTD/sodipodi-0.dtd"
   xmlns:inkscape="http://www.inkscape.org/namespaces/inkscape"
   version="1.1"
   x="0px"
   y="0px"
   width="100px"
   height="100px"
   viewBox="0 0 100 100"
   enable-background="new 0 0 100 100"
   xml:space="preserve"
   id="svg3071"
   inkscape:version="0.48.4 r9939"
   sodipodi:docname="kinect.svg"><metadata
     id="metadata3081"><rdf:RDF><cc:Work
         rdf:about=""><dc:format>image/svg+xml</dc:format><dc:type
           rdf:resource="http://purl.org/dc/dcmitype/StillImage" /><dc:title></dc:title></cc:Work></rdf:RDF></metadata><defs
     id="defs3079" /><sodipodi:namedview
     pagecolor="#ffffff"
     bordercolor="#666666"
     borderopacity="1"
     objecttolerance="10"
     gridtolerance="10"
     guidetolerance="10"
     inkscape:pageopacity="0"
     inkscape:pageshadow="2"
     inkscape:window-width="640"
     inkscape:window-height="480"
     id="namedview3077"
     showgrid="false"
     inkscape:zoom="2.36"
     inkscape:cx="50"
     inkscape:cy="50"
     inkscape:window-x="0"
     inkscape:window-y="27"
     inkscape:window-maximized="0"
     inkscape:current-layer="svg3071" /><g
     id="Captions" /><g
     id="Your_Icon"
     style="fill:#aa0000"><path
       fill-rule="evenodd"
       clip-rule="evenodd"
       d="M87.621,50.473H52.409v1.284c0.438,0.003,0.731,0.006,0.662,0.006   c0.37,0,0.855,0.196,1.195,0.347c0.456,0.201,7.631,3.229,8.2,3.575c0.569,0.345,0.199,0.921,0,1.469s-0.74,2.072-0.911,2.447   s-0.313,0.461-0.854,0.461c-0.465,0-8.216,0-10.374,0c0,0-0.208,0-0.559,0c-2.158,0-9.909,0-10.375,0   c-0.541,0-0.683-0.086-0.854-0.461s-0.712-1.899-0.911-2.447s-0.569-1.124,0-1.469c0.569-0.347,7.744-3.374,8.2-3.575   c0.34-0.15,0.826-0.347,1.196-0.347c-0.084,0,0.357-0.004,0.943-0.009v-1.281H12.562c-1.416,0-2.562-1.161-2.562-2.594v-5.535   c0-1.433,1.147-2.594,2.562-2.594h75.059c1.415,0,2.562,1.162,2.562,2.594v5.535C90.184,49.312,89.036,50.473,87.621,50.473z    M30.778,42.341c-1.426,0-2.583,1.17-2.583,2.615c0,1.444,1.156,2.615,2.583,2.615c1.427,0,2.583-1.171,2.583-2.615   C33.361,43.511,32.205,42.341,30.778,42.341z M38.464,44.421c-0.292,0-0.529,0.24-0.529,0.536s0.237,0.536,0.529,0.536   c0.292,0,0.529-0.24,0.529-0.536S38.757,44.421,38.464,44.421z M45.982,42.341c-1.427,0-2.583,1.17-2.583,2.615   c0,1.444,1.156,2.615,2.583,2.615c1.426,0,2.583-1.171,2.583-2.615C48.565,43.511,47.409,42.341,45.982,42.341z M53.84,42.341   c-1.426,0-2.582,1.17-2.582,2.615c0,1.444,1.156,2.615,2.582,2.615c1.427,0,2.583-1.171,2.583-2.615   C56.423,43.511,55.267,42.341,53.84,42.341z"
       id="path3075"
       style="fill:#aa0000" /></g></svg>